<svg width="130" height="98" xmlns="http://www.w3.org/2000/svg" xmlns:xlink="http://www.w3.org/1999/xlink" overflow="hidden"><defs><clipPath id="clip0"><rect x="1537" y="1209" width="130" height="98"/></clipPath></defs><g clip-path="url(#clip0)" transform="translate(-1537 -1209)"><path d="M1585.5 1209C1599.03 1209 1610 1219.97 1610 1233.5 1610 1247.03 1599.03 1258 1585.5 1258 1571.97 1258 1561 1247.03 1561 1233.5 1561 1219.97 1571.97 1209 1585.5 1209Z" fill="#B1B1B1" fill-rule="evenodd"/><path d="M1630.1 1217 1662.9 1217C1665.16 1217 1667 1218.79 1667 1221 1667 1223.21 1665.16 1225 1662.9 1225L1630.1 1225C1627.84 1225 1626 1223.21 1626 1221 1626 1218.79 1627.84 1217 1630.1 1217Z" fill="#51C0A3" fill-rule="evenodd"/><path d="M1630.1 1242 1662.9 1242C1665.16 1242 1667 1243.79 1667 1246 1667 1248.21 1665.16 1250 1662.9 1250L1630.1 1250C1627.84 1250 1626 1248.21 1626 1246 1626 1243.79 1627.84 1242 1630.1 1242Z" fill="#51C0A3" fill-rule="evenodd"/><path d="M1585.5 1266C1625.92 1266 1634 1290.6 1634 1298.8 1634 1307 1625.92 1307 1625.92 1307L1545.08 1307C1545.08 1307 1537 1307 1537 1298.8 1537 1290.6 1545.08 1266 1585.5 1266Z" fill="#B1B1B1" fill-rule="evenodd"/><path d="M1646.17 1266 1662.83 1266C1665.13 1266 1667 1267.79 1667 1270 1667 1272.21 1665.13 1274 1662.83 1274L1646.17 1274C1643.87 1274 1642 1272.21 1642 1270 1642 1267.79 1643.87 1266 1646.17 1266Z" fill="#51C0A3" fill-rule="evenodd"/><path d="M1646.17 1290 1662.83 1290C1665.13 1290 1667 1291.79 1667 1294 1667 1296.21 1665.13 1298 1662.83 1298L1646.17 1298C1643.87 1298 1642 1296.21 1642 1294 1642 1291.79 1643.87 1290 1646.17 1290Z" fill="#51C0A3" fill-rule="evenodd"/></g></svg>