<svg width="1459" height="1100" xmlns="http://www.w3.org/2000/svg" xmlns:xlink="http://www.w3.org/1999/xlink" fill="#b1b1b1" overflow="hidden"><defs><clipPath id="clip0"><rect x="953" y="555" width="1459" height="1394"/></clipPath><clipPath id="clip1"><rect x="1126" y="555" width="1113" height="794"/></clipPath><clipPath id="clip2"><rect x="1126" y="555" width="1113" height="794"/></clipPath><clipPath id="clip3"><rect x="1126" y="555" width="1113" height="1113"/></clipPath></defs><g clip-path="url(#clip0)" transform="translate(-953 -555)"><g clip-path="url(#clip1)"><g clip-path="url(#clip2)"><g clip-path="url(#clip3)"><path d="M973.625 312.951 973.625 764.991 904.081 764.991 904.081 312.951 764.991 312.951C707.379 312.951 660.674 266.247 660.674 208.634L660.674 69.5447 278.179 69.5447C239.77 69.5447 208.634 100.681 208.634 139.089L208.634 764.991 139.089 764.991 139.089 139.089C139.089 62.2724 201.362-1.5442e-14 278.179-1.5442e-14L660.674 0 973.625 312.951ZM296.538 824.104 296.538 1102.21 241.529 1102.21 241.529 983.014 124.485 983.014 124.485 1102.21 69.5447 1102.21 69.5447 824.104 124.554 824.104 124.554 937.184 241.529 937.184 241.529 824.104 296.469 824.104ZM453.083 870.143 453.083 1102.21 397.865 1102.21 397.865 870.143 319.071 870.143 319.071 824.104 532.156 824.104 532.156 870.143 453.083 870.143ZM604.413 1102.21 604.413 917.224 607.055 917.224 673.262 1067.37 709.147 1067.37 774.936 917.155 777.579 917.155 777.579 1102.21 827.303 1102.21 827.303 824.104 771.667 824.104 692.387 1004.64 690.578 1004.64 611.297 824.104 555.314 824.104 555.314 1102.21 604.413 1102.21ZM931.968 1055.34 1049.92 1055.34 1049.92 1102.21 876.958 1102.21 876.958 824.104 931.898 824.104 931.898 1055.34Z" fill-rule="evenodd" transform="matrix(1.00026 0 0 1 1126 555)"/></g></g></g><text fill="#51c0a3" font-family="Arial,Arial_MSFontService,sans-serif" font-weight="700" font-size="367" transform="matrix(1 0 0 1 1173.7 1645)">HTML</text></g></svg>