<svg width="1076" height="792" viewBox="0 0 1076 792" fill="none" xmlns="http://www.w3.org/2000/svg">
<path fill-rule="evenodd" clip-rule="evenodd" d="M40.0183 469.885C36.4175 463.332 34.0649 457.033 33.3515 449.564C32.7353 443.117 33.1009 436.732 33.8064 430.34C34.7982 421.35 37.2934 413.327 42.3543 405.89C45.3776 401.447 50.4558 396.616 55.8224 395.535C62.1433 394.263 69.1906 396.433 71.5991 403.068C73.0891 407.17 72.491 412.01 71.7146 416.177C70.7857 421.162 68.9097 425.774 66.3955 430.113C62.2944 437.191 56.5527 443.181 51.8692 449.852C49.6462 453.018 47.3738 456.146 45.4641 459.525C44.5183 461.197 43.6176 462.92 43.2913 464.848C43.1169 465.88 43.7967 469.453 41.8811 468.996C51.4419 485.868 72.7657 493.751 90.7133 488.137C92.3861 487.613 94.0346 487.016 95.6874 486.435C96.7311 486.067 100.224 484.065 101.305 484.585C103.689 485.73 99.1583 487.187 98.5242 487.43C96.8853 488.059 95.2399 488.672 93.5912 489.273C84.6231 492.542 74.9143 493.085 65.6449 490.186C55.0452 486.872 45.4679 479.803 40.0183 469.885" fill="#89C5CC"/>
<path fill-rule="evenodd" clip-rule="evenodd" d="M944.222 243.974C943.83 243.69 942.899 243.59 942.465 243.505C940.665 243.153 938.81 243 936.974 243C931.313 243.008 925.56 243.559 919.993 244.513C916.458 245.119 912.185 247.156 908.669 246.05C902.544 244.122 896.353 244.216 890.541 246.969C885.228 249.486 881.194 254.266 878.84 259.432C878.485 260.211 877.044 263.081 876.637 265.016C876.462 265.411 876.295 265.809 876.144 266.214C875.715 267.361 875.331 268.529 874.973 269.699C874.821 270.198 874.437 271.301 874.893 271.514C874.165 272.846 873.519 274.22 872.981 275.638C871.418 279.762 869.708 284.286 869.159 288.658C868.955 290.276 868.947 291.904 869.136 293.526C869.23 294.327 869.191 295.939 869.739 296.549C870.902 297.842 871.499 296.031 871.368 295.169C870.367 288.597 872.3 282.425 874.591 276.247C876.073 272.252 878.507 268.598 881.234 265.288C883.441 262.609 885.808 260.499 888.834 258.723C892.533 256.55 896.488 254.794 900.407 253.033C902.984 251.874 905.565 250.746 908.214 249.748C908.803 249.525 909.73 248.956 910.384 248.953C911.765 248.948 913.722 249.959 915.057 250.335C919.445 251.573 923.89 253.157 928.426 253.789C931.335 254.195 934.061 253.738 936.782 252.777C937.06 252.679 937.526 252.426 938.097 252.066C940.117 251.295 942.028 250.326 943.691 248.926C944.65 248.12 945.52 247.078 946.313 246.125C946.55 245.84 946.655 245.513 946.659 245.203C946.839 245.109 946.958 245.001 946.985 244.873C947.183 243.935 945.378 243.918 944.222 243.974" fill="#89C5CC"/>
<path fill-rule="evenodd" clip-rule="evenodd" d="M233.273 321.541C231.764 322.763 230.284 324.011 228.84 325.31C227.739 326.3 225.791 327.485 225.396 328.985C224.985 330.544 226.282 332.003 227.306 332.945C232.723 337.929 238.823 341.298 246.329 341.859C257.887 342.722 267.946 339.77 277.974 333.963C285.018 329.883 289.684 323.849 290.703 315.701C299.092 319.187 307.205 323.993 314.1 329.891C317.502 332.801 320.432 336.025 323.142 339.599C324.878 341.889 326.557 344.215 328.115 346.631C328.792 347.68 329.481 349.542 330.599 350.146C331.912 350.856 333.499 349.743 333.434 348.284C333.379 347.069 332.068 345.66 331.454 344.667C330.436 343.018 329.402 341.379 328.313 339.776C326.551 337.179 324.73 334.62 322.744 332.19C318.28 326.73 312.601 322.221 306.714 318.375C295.42 310.997 283.025 306.349 269.283 305.955C260.833 305.713 253.725 308.6 246.499 312.911C242 315.595 237.356 318.235 233.273 321.541" fill="#DDE3E9"/>
<path fill-rule="evenodd" clip-rule="evenodd" d="M342.883 285.856C334.077 276.787 325.241 267.832 315.403 259.847C309.605 255.141 303.495 250.863 297.511 246.401C298.201 247.006 298.878 247.628 299.539 248.266C297.671 246.998 295.226 246.281 293.246 245.107C291.037 243.798 288.925 242.301 286.854 240.791C282.811 237.845 278.829 234.843 274.673 232.051C270.043 228.94 265.245 226.066 260.536 223.072C256.539 220.532 252.494 217.751 248.218 215.674C245.888 214.542 243.553 213.201 241.213 212.02C240.43 211.625 232.484 206.608 232.504 206.593C232.943 206.262 236.942 208.14 237.56 208.393C239.366 209.131 241.094 210.013 242.83 210.893C241.877 209.013 241.123 207.038 240.712 204.958C240.585 204.317 239.569 199.644 240.089 199.252C240.348 199.057 242.883 207.416 243.013 208.22C243.119 208.872 243.103 209.812 243.317 210.431C243.662 211.429 243.645 211.127 244.405 211.69C245.798 212.721 247.647 213.365 249.154 214.227C249.968 214.68 252.485 216.48 254.001 216.993C258.588 219.221 263.238 222.649 267.597 225.495C266.453 223.345 265.582 221.097 264.948 218.741C264.797 218.182 263.167 213.165 263.563 212.867C264.008 212.532 267.112 220.195 267.296 220.92C267.637 222.268 267.708 223.768 268.136 225.079C268.605 226.518 270.07 227.028 271.39 227.867C276.247 230.953 280.938 234.232 285.55 237.662C290.583 228.711 284.78 217.903 279.89 210.393C276.364 204.98 271.619 200.34 266.608 196.289C259.92 190.882 252.269 186.563 244.627 182.612C235.723 178.009 226.099 175.156 216.093 173.839C210.86 173.149 205.507 173.169 200.221 173.39C197.639 173.498 195.16 173.84 192.686 174.682C191.57 175.062 190.492 175.541 189.442 176.077C188.644 176.484 186.713 176.914 186.255 177.521C182.477 182.438 180.545 187.337 180.84 193.515C181.119 199.363 182.966 205.214 185.472 210.431C188.264 216.24 191.854 221.512 196.55 225.936C200.132 229.312 204.137 232.25 208.116 235.15C222.267 245.463 240.208 254.433 258.536 252.128C264.469 251.383 270.112 249.308 275.385 246.489C276.628 245.824 277.863 245.152 279.036 244.368C279.827 243.839 281.941 241.456 282.736 241.37C283.827 241.251 286.175 243.469 287.198 244.144C294.972 249.275 302.542 254.685 309.953 260.313C317.839 266.301 325.337 272.697 332.615 279.393C335.71 282.242 338.786 285.096 341.791 288.04C342.491 288.725 344.202 291.247 345.471 291.361C346.273 291.434 346.814 290.749 346.7 290.006C346.501 288.715 343.785 286.784 342.883 285.856" fill="#C1DEE2"/>
<path fill-rule="evenodd" clip-rule="evenodd" d="M1010.98 291.66C1007.57 290.915 1003.8 290.972 1000.33 291.033C981.695 291.287 963.397 300.109 951.489 314.205C941.351 326.205 938.563 341.125 936.56 356.207C936.362 357.704 936.277 359.192 936.165 360.693C936.141 361.015 936.105 361.302 936.066 361.573C935.279 362.277 934.865 363.098 935.332 364C933.597 367.797 932.129 371.69 930.869 375.706C927.162 387.526 923.392 399.571 925.714 412C926.257 405.16 927.399 398.166 928.764 391.438C928.842 391.052 928.927 390.669 929.015 390.287C929.025 390.247 929.033 390.206 929.042 390.166C929.525 388.106 930.153 386.108 930.917 384.141C930.925 384.119 930.933 384.098 930.941 384.077C931.042 383.818 931.149 383.56 931.255 383.303C931.474 382.77 931.699 382.238 931.937 381.709C932.018 381.528 932.095 381.346 932.17 381.163C933.282 378.437 933.751 375.365 934.748 372.545C934.986 371.904 935.235 371.265 935.496 370.629C935.512 370.592 935.527 370.555 935.543 370.518C936.249 368.807 937.028 367.118 937.853 365.446C938.301 365.11 938.54 364.274 938.927 363.515C939.006 363.365 939.631 362.368 939.817 361.793C940.303 360.854 940.786 359.915 941.275 358.977C941.261 358.983 941.246 358.988 941.231 358.994C941.72 358.093 942.211 357.197 942.698 356.304C942.805 356.108 942.913 355.912 943.021 355.715C943.196 355.402 943.371 355.089 943.545 354.777C945.177 351.856 946.908 348.994 948.705 346.167C949.347 345.158 950.879 343.711 951.173 342.579C951.184 342.536 951.186 342.497 951.193 342.457C955.093 336.979 959.582 331.927 964.967 327.924C964.316 328.628 962.932 331.015 962.567 331.488C961.447 332.935 960.232 334.282 959.013 335.646C956.828 338.089 954.696 340.609 952.801 343.274C949.335 348.148 946.346 353.277 943.519 358.51C943.493 358.54 943.463 358.569 943.438 358.601C942.017 360.352 941.123 362.998 940.101 365.001C944.147 363.127 948.622 361.906 952.774 360.242C956.916 358.583 960.944 356.735 964.834 354.566C970.003 351.682 975.366 348.427 980.25 344.743C985.847 341.271 990.551 336.492 994.703 331.477C999.615 325.543 1004.12 319.558 1006.9 312.353C1008.27 308.813 1009.34 305.121 1009.98 301.386C1010.01 301.224 1010.05 301.047 1010.08 300.864C1010.74 299.574 1011.32 298.255 1011.81 296.906C1012.59 294.766 1014.42 292.412 1010.98 291.66" fill="#69A1AC"/>
<path fill-rule="evenodd" clip-rule="evenodd" d="M149.78 262.014C148.226 260.666 146.481 259.45 144.432 258.583C143.914 258.364 140.056 256.895 139.805 257.218C139.219 257.968 149.313 261.583 149.78 262.014M168.074 253.012C168.061 253.069 169.399 254.887 169.763 255.446C170.539 256.635 171.254 257.847 171.928 259.061C170.931 256.916 169.907 254.928 168.074 253.012M74.5133 267.814C73.2248 268.146 71.6756 266.836 73.3469 266.514C74.6993 266.254 74.633 266.193 75.2402 265.321C75.7333 264.612 76.0371 263.748 76.4698 263.005C77.3876 261.427 78.4287 259.923 79.7066 258.514C82.4454 255.493 85.7824 252.89 89.5251 250.696C96.0568 246.868 103.38 243.369 111.149 241.611C123.502 238.816 137.56 238.643 149.932 240.581C157.594 241.781 164.597 243.867 169.684 248.809C172.227 251.279 174.223 254.172 175.096 257.358C175.324 258.19 175.281 259.116 175.566 259.932C176.004 261.185 175.811 260.851 177.641 261.095C179.64 261.362 181.637 261.633 183.633 261.91C188.86 262.634 194.118 263.403 199.211 264.578C200.887 264.965 202.527 265.437 204.128 265.987C205.34 266.402 210.163 267.704 210.749 268.965C211.725 271.062 208.456 270.111 207.44 269.655C206.55 269.254 205.637 268.881 204.71 268.538C202.377 267.673 199.945 267.004 197.459 266.471C194.772 265.895 192.031 265.466 189.3 265.035C186.753 264.634 184.196 264.27 181.637 263.921C180.215 263.727 178.791 263.539 177.368 263.35C176.882 263.286 176.025 262.949 176.089 263.455C173.097 262.993 169.861 263.06 166.814 262.932C163.081 262.777 159.334 262.649 155.588 262.742C152.887 262.81 150.183 262.952 147.495 263.242C145.925 263.412 144.379 263.661 142.838 263.976C141.992 264.149 138.654 264.515 138.193 265.106C138.391 264.852 142.075 265.099 142.544 265.084C144.419 265.028 146.28 264.879 148.148 264.712C151.615 264.402 155.084 264.24 158.562 264.263C158.549 264.752 156.173 265.623 155.593 265.947C154.293 266.674 153.047 267.467 151.885 268.337C149.839 269.869 147.388 271.766 145.972 273.581C146.389 273.046 148.448 272.35 149.178 271.942C150.348 271.287 151.495 270.588 152.579 269.841C153.581 269.152 154.515 268.407 155.434 267.646C156.353 266.885 157.6 265.303 158.807 264.796C158.88 264.765 159.406 265.098 159.705 264.985C160.007 264.871 160.382 264.3 160.459 264.277C161.583 263.93 163.717 264.362 164.899 264.406C167.963 264.519 171.024 264.667 174.086 264.802C175.035 264.843 175.841 264.671 176.199 265.231C176.581 265.829 175.881 267.4 175.682 268.051C174.944 270.469 173.633 272.638 171.568 274.511C167.703 278.02 162.936 280.359 157.552 281.924C136.927 287.918 114.984 290.318 94.3656 284.083C85.8295 281.502 72.9741 276.889 74.5133 267.814" fill="#89C5CC"/>
<g opacity="0.6" clip-path="url(#clip0_4_3832)">
<path fill-rule="evenodd" clip-rule="evenodd" d="M1019.29 587.189C1033.33 663.272 692.895 712.899 399.879 678.266C106.863 643.633 -27.5591 508.387 112.263 436.322C252.086 364.258 1005.25 511.106 1019.29 587.189Z" fill="#DDE3E9"/>
</g>
<path fill-rule="evenodd" clip-rule="evenodd" d="M1017.2 205.813C1018.29 205.424 1019.36 204.905 1020.35 204.142C1020.6 203.948 1022.39 202.465 1022.3 202.253C1022.09 201.759 1017.54 205.703 1017.2 205.813M1016.56 217.249C1016.54 217.228 1015.28 217.381 1014.91 217.405C1014.11 217.457 1013.32 217.473 1012.54 217.468C1013.86 217.571 1015.12 217.618 1016.56 217.249M1035.11 167.373C1035.3 166.65 1036.37 166.253 1036.07 167.16C1035.82 167.894 1035.87 167.878 1036.13 168.416C1036.34 168.853 1036.68 169.24 1036.93 169.656C1037.45 170.54 1037.89 171.465 1038.23 172.479C1038.96 174.652 1039.31 177.003 1039.35 179.44C1039.43 183.693 1039.12 188.242 1037.84 192.529C1035.8 199.346 1032.01 206.275 1027.65 211.797C1024.95 215.216 1022 218.068 1018.18 219.196C1016.27 219.76 1014.3 219.94 1012.5 219.489C1012.03 219.37 1011.59 219.094 1011.11 219.009C1010.38 218.878 1010.59 218.875 1009.97 219.704C1009.29 220.609 1008.6 221.511 1007.92 222.412C1006.12 224.771 1004.3 227.133 1002.32 229.302C1001.67 230.016 1000.98 230.688 1000.27 231.32C999.736 231.799 997.768 233.8 996.99 233.74C995.694 233.639 997.061 232.301 997.564 231.93C998.005 231.605 998.44 231.261 998.864 230.902C999.93 229.998 1000.93 228.992 1001.87 227.922C1002.9 226.766 1003.86 225.542 1004.83 224.324C1005.72 223.188 1006.61 222.037 1007.48 220.881C1007.97 220.238 1008.46 219.593 1008.94 218.949C1009.11 218.728 1009.51 218.402 1009.24 218.294C1010.29 216.956 1011.15 215.354 1012.05 213.898C1013.16 212.113 1014.26 210.314 1015.24 208.455C1015.95 207.114 1016.63 205.752 1017.23 204.356C1017.58 203.541 1017.88 202.716 1018.15 201.875C1018.3 201.413 1019.04 199.678 1018.88 199.289C1018.95 199.456 1017.81 201.191 1017.69 201.425C1017.2 202.358 1016.76 203.31 1016.33 204.271C1015.53 206.053 1014.65 207.796 1013.68 209.492C1013.44 209.35 1013.67 207.947 1013.67 207.574C1013.68 206.737 1013.63 205.909 1013.52 205.101C1013.34 203.676 1013.09 201.954 1012.59 200.76C1012.74 201.112 1012.51 202.311 1012.51 202.782C1012.5 203.535 1012.53 204.289 1012.6 205.025C1012.66 205.706 1012.77 206.368 1012.88 207.028C1013 207.687 1013.43 208.734 1013.35 209.465C1013.35 209.509 1013.04 209.675 1013.01 209.852C1012.98 210.031 1013.16 210.372 1013.15 210.416C1013.01 211.062 1012.21 211.988 1011.86 212.554C1010.96 214.023 1010.05 215.48 1009.13 216.942C1008.85 217.395 1008.72 217.837 1008.34 217.858C1007.94 217.88 1007.37 217.104 1007.1 216.827C1006.12 215.799 1005.42 214.56 1005.08 213.033C1004.42 210.173 1004.59 207.195 1005.31 204.128C1008.06 192.38 1012.94 180.978 1021.68 172.605C1025.29 169.138 1031.09 164.117 1035.11 167.373" fill="#89C5CC"/>
<path fill-rule="evenodd" clip-rule="evenodd" d="M98.1399 598C96.815 598 95.4943 598.027 94.1711 598.095C93.1625 598.148 91.6212 597.939 90.7678 598.568C89.8811 599.221 89.9421 600.557 90.0807 601.501C90.8129 606.493 92.6001 610.919 96.3389 614.456C102.096 619.901 108.695 622.668 116.504 623.9C121.99 624.766 127.054 623.564 131.092 619.663C134.043 625.139 136.281 631.199 137.404 637.315C137.958 640.333 138.127 643.315 138.03 646.388C137.967 648.356 137.859 650.32 137.648 652.279C137.556 653.13 137.122 654.418 137.455 655.223C137.846 656.167 139.165 656.259 139.757 655.453C140.25 654.783 140.16 653.466 140.261 652.673C140.429 651.355 140.584 650.036 140.695 648.712C140.876 646.569 141.009 644.42 141 642.268C140.977 637.435 139.902 632.583 138.432 627.995C135.612 619.192 131.037 611.369 123.921 605.231C119.545 601.457 114.537 599.929 108.856 599.108C105.318 598.597 101.723 598 98.1399 598" fill="#89C5CC"/>
<path fill-rule="evenodd" clip-rule="evenodd" d="M118.571 633C104.272 633 94.642 644.524 90.0887 656.502C88.3722 661.016 87.9699 665.974 87.3084 670.714C87.096 672.236 87.1747 674.554 86.5572 675.909C86.3331 676.401 85.8194 676.577 86.065 677.247C86.2137 677.652 86.5055 677.901 86.9436 677.981C87.843 678.147 89.1148 677.167 89.8859 676.781C96.2819 673.573 100.484 668.613 103.912 662.545C106.038 658.784 108.194 654.879 109.456 650.75C110.227 648.227 110.676 645.571 110.94 642.954C111.044 641.923 111.144 640.868 111.138 639.832C111.132 638.803 110.653 638.259 110.309 637.364C115.08 635.558 120.466 635.066 125.299 636.937C129.769 638.668 133.482 642.013 135.561 646.216C136.101 647.308 136.518 648.46 136.821 649.636C137.02 650.406 137.029 651.404 137.398 652.1C138.29 653.788 140.168 652.66 139.988 651.089C139.485 646.708 136.979 642.309 133.775 639.263C129.734 635.421 124.258 633 118.571 633" fill="#89C5CC"/>
<rect x="134" y="380" width="159" height="302" rx="8" fill="#DDE3E9"/>
<path fill-rule="evenodd" clip-rule="evenodd" d="M213 663C221.284 663 228 656.284 228 648C228 639.716 221.284 633 213 633C204.716 633 198 639.716 198 648C198 656.284 204.716 663 213 663Z" fill="white"/>
<path fill-rule="evenodd" clip-rule="evenodd" d="M200 400C201.105 400 202 399.105 202 398C202 396.895 201.105 396 200 396C198.895 396 198 396.895 198 398C198 399.105 198.895 400 200 400Z" fill="white"/>
<rect x="207" y="396" width="21" height="4" rx="2" fill="white"/>
<rect x="148" y="408" width="131" height="54" rx="4" fill="white"/>
<g clip-path="url(#clip1_4_3832)">
<rect x="157" y="424.2" width="73" height="8.1" rx="3" fill="#DDE3E9"/>
<rect x="157" y="437.7" width="49" height="8.1" rx="3" fill="#DDE3E9"/>
</g>
<path fill-rule="evenodd" clip-rule="evenodd" d="M265 442C268.866 442 272 438.866 272 435C272 431.134 268.866 428 265 428C261.134 428 258 431.134 258 435C258 438.866 261.134 442 265 442Z" fill="#DDE3E9"/>
<path fill-rule="evenodd" clip-rule="evenodd" d="M265 438C266.657 438 268 436.657 268 435C268 433.343 266.657 432 265 432C263.343 432 262 433.343 262 435C262 436.657 263.343 438 265 438Z" fill="#F2F2F2"/>
<rect x="148" y="470" width="131" height="42" rx="4" fill="white"/>
<g clip-path="url(#clip2_4_3832)">
<rect x="187" y="482.6" width="73" height="6.3" rx="3" fill="#DDE3E9"/>
<rect x="187" y="493.1" width="49" height="6.3" rx="3" fill="#DDE3E9"/>
</g>
<path fill-rule="evenodd" clip-rule="evenodd" d="M169 503C175.627 503 181 497.627 181 491C181 484.373 175.627 479 169 479C162.373 479 157 484.373 157 491C157 497.627 162.373 503 169 503Z" fill="#C5CFD6"/>
<rect x="148" y="520" width="131" height="42" rx="4" fill="white"/>
<g clip-path="url(#clip3_4_3832)">
<rect x="157" y="532.6" width="73" height="6.3" rx="3" fill="#DDE3E9"/>
<rect x="157" y="543.1" width="49" height="6.3" rx="3" fill="#AFB9C5"/>
</g>
<path fill-rule="evenodd" clip-rule="evenodd" d="M265 548C268.866 548 272 544.866 272 541C272 537.134 268.866 534 265 534C261.134 534 258 537.134 258 541C258 544.866 261.134 548 265 548Z" fill="#DDE3E9"/>
<path fill-rule="evenodd" clip-rule="evenodd" d="M265 544C266.657 544 268 542.657 268 541C268 539.343 266.657 538 265 538C263.343 538 262 539.343 262 541C262 542.657 263.343 544 265 544Z" fill="#F2F2F2"/>
<rect x="148" y="570" width="131" height="42" rx="4" fill="white"/>
<g clip-path="url(#clip4_4_3832)">
<rect x="187" y="582.6" width="73" height="6.3" rx="3" fill="#DDE3E9"/>
<rect x="187" y="593.1" width="49" height="6.3" rx="3" fill="#DDE3E9"/>
</g>
<path fill-rule="evenodd" clip-rule="evenodd" d="M169 603C175.627 603 181 597.627 181 591C181 584.373 175.627 579 169 579C162.373 579 157 584.373 157 591C157 597.627 162.373 603 169 603Z" fill="#C5CFD6"/>
<path fill-rule="evenodd" clip-rule="evenodd" d="M890.986 334.376C887.041 331.701 881.796 331 877.076 331C858.64 331 841.311 337.84 826.341 348.032C818.138 353.616 810.8 360.728 804.322 368.132C800.582 372.407 797.248 377.03 794.887 382.173C793.294 385.644 792.201 389.261 791.46 392.991C790.557 397.537 789.839 402.175 789.515 406.797C789.387 408.617 788.33 418.274 791.356 418.438C791.338 418.676 791.334 418.903 791.353 419.106C784.782 429.38 780.723 441.42 776.958 452.835C773.683 462.769 770.764 472.786 768.87 483.063C766.375 496.592 764.737 510.326 763.958 524.05C763.791 526.999 763.676 529.95 763.577 532.903C763.493 535.422 763.408 537.941 763.325 540.461C763.233 543.284 762.736 546.534 763.185 549.34C763.576 551.784 765.691 551.414 765.785 548.982C765.898 546.045 765.879 543.102 766.008 540.163C766.179 536.262 766.355 532.361 766.546 528.461C767.875 501.369 772.86 474.675 782.061 449.084C785.785 438.728 790.051 428.925 795.535 419.345C800.356 410.922 806.156 402.767 812.084 395.173C817.845 387.792 823.836 380.583 830.895 374.33C836.624 369.256 842.926 364.835 849.404 360.722C857.631 355.498 865.843 350.401 874.755 346.391C879.388 344.307 884.108 342.441 888.777 340.44C889.617 340.081 890.517 339.732 891.325 339.315C894.02 337.925 893.133 335.832 890.986 334.376" fill="#C1DEE2"/>
<path fill-rule="evenodd" clip-rule="evenodd" d="M917.818 512C925.295 512 931.949 512.972 938.838 515.943C944.785 518.508 950.205 521.903 955.467 525.599C962.868 530.798 968.698 536.848 972.779 544.865C975.217 549.654 977.006 556.431 975.368 561.655C973.44 567.807 968.144 572.939 961.169 571.855C956.856 571.185 952.903 568.33 949.625 565.643C945.703 562.428 942.564 558.563 939.972 554.27C935.744 547.267 933.26 539.351 929.668 532.033C927.964 528.56 926.317 525.063 924.275 521.762C923.265 520.128 922.189 518.509 920.656 517.294C919.836 516.644 916.378 515.52 917.7 514.061C898.31 514.315 881.132 529.207 877.409 547.641C877.063 549.359 876.792 551.091 876.505 552.82C876.325 553.911 876.398 557.937 875.422 558.634C873.27 560.172 874.174 555.499 874.267 554.826C874.506 553.087 874.76 551.35 875.027 549.615C876.481 540.181 880.681 531.411 887.685 524.683C895.694 516.99 906.501 512 917.818 512" fill="#89C5CC"/>
<rect x="754" y="153" width="6" height="25" rx="3" fill="#DDE3E9"/>
<rect x="768" y="137" width="6" height="41" rx="3" fill="#DDE3E9"/>
<rect x="782" y="129" width="6" height="49" rx="3" fill="#DDE3E9"/>
<rect x="796" y="137" width="6" height="41" rx="3" fill="#DDE3E9"/>
<rect x="810" y="121" width="6" height="57" rx="3" fill="#C5CFD6"/>
<path fill-rule="evenodd" clip-rule="evenodd" d="M749 302.256C749 291.117 758.002 282 769 282V302.256L755.332 317C751.444 313.395 749 308.107 749 302.256Z" fill="#F2F2F2"/>
<path fill-rule="evenodd" clip-rule="evenodd" d="M768.471 302H788.668C788.668 307.221 786.538 312.113 783.171 315.668C779.468 319.556 774.195 322 768.471 322C763.198 322 758.372 319.891 754.668 316.557L768.471 302Z" fill="#AFB9C5"/>
<path fill-rule="evenodd" clip-rule="evenodd" d="M789 302C789 291.002 779.998 282 769 282V302H789ZM759 282L767 300L749 292C750.78 287.334 754.777 283.78 759 282Z" fill="#C5CFD6"/>
<path fill-rule="evenodd" clip-rule="evenodd" d="M870.766 424.179C868.845 426.219 866.123 427.5 863.095 427.5C857.278 427.5 852.562 422.799 852.562 417C852.562 411.201 857.278 406.5 863.095 406.5V387C846.546 387 833 400.503 833 417C833 433.497 846.546 447 863.095 447C871.788 447 879.645 443.334 885 437.502L870.766 424.179Z" fill="#F2F2F2"/>
<path fill-rule="evenodd" clip-rule="evenodd" d="M863 387V406.5C868.799 406.5 873.5 411.201 873.5 417H893C893 400.503 879.497 387 863 387Z" fill="#AFB9C5"/>
<path fill-rule="evenodd" clip-rule="evenodd" d="M873.097 417C873.097 420.407 871.492 423.435 869 425.391L881.262 441C888.399 435.412 893 426.749 893 417H873.097Z" fill="#C5CFD6"/>
<path fill-rule="evenodd" clip-rule="evenodd" d="M722.051 160.504C720.573 162.068 718.479 163.05 716.15 163.05C711.675 163.05 708.048 159.446 708.048 155C708.048 150.554 711.675 146.95 716.15 146.95V132C703.42 132 693 142.352 693 155C693 167.648 703.42 178 716.15 178C722.837 178 728.88 175.189 733 170.718L722.051 160.504Z" fill="#F2F2F2"/>
<path fill-rule="evenodd" clip-rule="evenodd" d="M716 132V146.95C720.446 146.95 724.05 150.554 724.05 155H739C739 142.352 728.648 132 716 132Z" fill="#AFB9C5"/>
<path fill-rule="evenodd" clip-rule="evenodd" d="M724.073 155C724.073 157.555 722.869 159.827 721 161.293L730.196 173C735.55 168.809 739 162.312 739 155H724.073Z" fill="#C5CFD6"/>
<path fill-rule="evenodd" clip-rule="evenodd" d="M292.007 164.986C292.003 164.996 291.999 165.006 291.993 165.018C291.999 165.008 292.007 164.968 292.007 164.986" fill="#C5CFD6"/>
<path fill-rule="evenodd" clip-rule="evenodd" d="M291.998 165.001C291.998 165.003 291.996 165.007 291.996 165.011C291.996 165.001 292.014 164.971 291.998 165.001" fill="#C5CFD6"/>
<path fill-rule="evenodd" clip-rule="evenodd" d="M292.067 164.832C292.053 164.872 292.035 164.91 292.019 164.95C292.027 164.93 292.035 164.914 292.043 164.894C291.835 165.414 291.967 165.076 292.067 164.832" fill="#C5CFD6"/>
<path fill-rule="evenodd" clip-rule="evenodd" d="M292.022 164.953C292.014 164.971 292.006 164.991 291.998 165.009C291.94 165.121 292.022 164.953 292.022 164.953" fill="#C5CFD6"/>
<path fill-rule="evenodd" clip-rule="evenodd" d="M291.999 165.002C291.999 165 291.999 165 292.001 164.998C291.999 165 291.999 165 291.999 165.002" fill="#C5CFD6"/>
<path fill-rule="evenodd" clip-rule="evenodd" d="M291.99 165.016C291.978 165.04 292.046 164.924 291.99 165.016Z" fill="#C5CFD6"/>
<path fill-rule="evenodd" clip-rule="evenodd" d="M291.998 165.002L292.002 164.998C292 165 292 165.002 291.998 165.002" fill="#C5CFD6"/>
<path fill-rule="evenodd" clip-rule="evenodd" d="M318 143C322.971 143 327 138.971 327 134C327 129.029 322.971 125 318 125C313.029 125 309 129.029 309 134C309 138.971 313.029 143 318 143Z" fill="white"/>
<path fill-rule="evenodd" clip-rule="evenodd" d="M814.993 589.986C814.997 589.996 815.001 590.006 815.007 590.018C815.001 590.008 814.993 589.968 814.993 589.986" fill="#C5CFD6"/>
<path fill-rule="evenodd" clip-rule="evenodd" d="M815.002 590.001C815.002 590.003 815.004 590.007 815.004 590.011C815.004 590.001 814.986 589.971 815.002 590.001" fill="#C5CFD6"/>
<path fill-rule="evenodd" clip-rule="evenodd" d="M814.933 589.832C814.947 589.872 814.965 589.91 814.981 589.95C814.973 589.93 814.965 589.914 814.957 589.894C815.165 590.414 815.033 590.076 814.933 589.832" fill="#C5CFD6"/>
<path fill-rule="evenodd" clip-rule="evenodd" d="M814.978 589.953C814.986 589.971 814.994 589.991 815.002 590.009C815.06 590.121 814.978 589.953 814.978 589.953" fill="#C5CFD6"/>
<path fill-rule="evenodd" clip-rule="evenodd" d="M815.001 590.002C815.001 590 815.001 590 814.999 589.998C815.001 590 815.001 590 815.001 590.002" fill="#C5CFD6"/>
<path fill-rule="evenodd" clip-rule="evenodd" d="M815.01 590.016C815.022 590.04 814.954 589.924 815.01 590.016Z" fill="#C5CFD6"/>
<path fill-rule="evenodd" clip-rule="evenodd" d="M815.002 590.002L814.998 589.998C815 590 815 590.002 815.002 590.002" fill="#C5CFD6"/>
<rect width="142" height="94" rx="4" transform="matrix(-1 0 0 1 886 513)" fill="#DDE3E9"/>
<path fill-rule="evenodd" clip-rule="evenodd" d="M833.274 540L874.329 607H792.219L833.274 540Z" fill="#AFB9C5"/>
<path fill-rule="evenodd" clip-rule="evenodd" d="M790.944 557.946L827.239 607H754.649L790.944 557.946Z" fill="#C5CFD6"/>
<path fill-rule="evenodd" clip-rule="evenodd" d="M775.5 558C768.044 558 762 551.956 762 544.5C762 537.044 768.044 531 775.5 531C782.956 531 789 537.044 789 544.5C789 551.956 782.956 558 775.5 558Z" fill="white"/>
<defs>
<clipPath id="clip0_4_3832">
<rect width="962.584" height="272.541" fill="white" transform="translate(56.708 416.965)"/>
</clipPath>
<clipPath id="clip1_4_3832">
<rect width="73" height="21.6" fill="white" transform="translate(157 424.2)"/>
</clipPath>
<clipPath id="clip2_4_3832">
<rect width="73" height="16.8" fill="white" transform="translate(187 482.6)"/>
</clipPath>
<clipPath id="clip3_4_3832">
<rect width="73" height="16.8" fill="white" transform="translate(157 532.6)"/>
</clipPath>
<clipPath id="clip4_4_3832">
<rect width="73" height="16.8" fill="white" transform="translate(187 582.6)"/>
</clipPath>
</defs>
</svg>
