<svg width="1011" height="792" viewBox="0 0 1011 792" fill="none" xmlns="http://www.w3.org/2000/svg">
<path fill-rule="evenodd" clip-rule="evenodd" d="M694 257C723.271 257 747 233.271 747 204C747 174.729 723.271 151 694 151C664.729 151 641 174.729 641 204C641 233.271 664.729 257 694 257Z" fill="#F2F2F2"/>
<path fill-rule="evenodd" clip-rule="evenodd" d="M694 165C695.657 165 697 163.657 697 162C697 160.343 695.657 159 694 159C692.343 159 691 160.343 691 162C691 163.657 692.343 165 694 165Z" fill="black" fill-opacity="0.1"/>
<path fill-rule="evenodd" clip-rule="evenodd" d="M652 207C653.657 207 655 205.657 655 204C655 202.343 653.657 201 652 201C650.343 201 649 202.343 649 204C649 205.657 650.343 207 652 207Z" fill="black" fill-opacity="0.1"/>
<path fill-rule="evenodd" clip-rule="evenodd" d="M736 207C737.657 207 739 205.657 739 204C739 202.343 737.657 201 736 201C734.343 201 733 202.343 733 204C733 205.657 734.343 207 736 207Z" fill="black" fill-opacity="0.1"/>
<path fill-rule="evenodd" clip-rule="evenodd" d="M694 249C695.657 249 697 247.657 697 246C697 244.343 695.657 243 694 243C692.343 243 691 244.343 691 246C691 247.657 692.343 249 694 249Z" fill="black" fill-opacity="0.1"/>
<path fill-rule="evenodd" clip-rule="evenodd" d="M694 168L696 203H692L694 168Z" fill="#AFB9C5"/>
<path fill-rule="evenodd" clip-rule="evenodd" d="M711.699 221.698L693.314 206.142L696.142 203.314L711.699 221.698Z" fill="#AFB9C5"/>
<path fill-rule="evenodd" clip-rule="evenodd" d="M694 208C696.209 208 698 206.209 698 204C698 201.791 696.209 200 694 200C691.791 200 690 201.791 690 204C690 206.209 691.791 208 694 208Z" fill="#C5CFD6"/>
<g opacity="0.345889" clip-path="url(#clip0_5_4186)">
<path fill-rule="evenodd" clip-rule="evenodd" d="M760.306 484.966C749.796 395.227 185.9 222.021 81.2146 307.02C-23.4708 392.019 77.1712 551.54 296.553 592.389C515.935 633.239 770.815 574.705 760.306 484.966Z" fill="#F2F2F2"/>
<path fill-rule="evenodd" clip-rule="evenodd" d="M283.847 543.274C293.552 467.037 814.279 319.892 910.95 392.102C1007.62 464.312 983.152 616.198 780.565 650.901C577.978 685.604 274.142 619.511 283.847 543.274Z" fill="#DDE3E9"/>
</g>
<path fill-rule="evenodd" clip-rule="evenodd" d="M210.5 219.673C233.972 219.673 253 209.6 253 197.173C253 184.747 233.972 174.673 210.5 174.673C187.028 174.673 168 184.747 168 197.173C168 209.6 187.028 219.673 210.5 219.673Z" fill="#F2F2F2"/>
<path fill-rule="evenodd" clip-rule="evenodd" d="M260 212.673C260 185.059 237.838 162.673 210.5 162.673C183.162 162.673 161 185.059 161 212.673" fill="#DDE3E9"/>
<rect x="208" y="10" width="5" height="160" fill="#DDE3E9"/>
<g opacity="0.7">
<path fill-rule="evenodd" clip-rule="evenodd" d="M288 169C305.545 169 319.768 160.87 319.768 150.842C319.768 140.814 305.545 132.684 288 132.684C270.455 132.684 256.232 140.814 256.232 150.842C256.232 160.87 270.455 169 288 169Z" fill="#F2F2F2"/>
<path fill-rule="evenodd" clip-rule="evenodd" d="M325 163.351C325 141.066 308.435 123 288 123C267.565 123 251 141.066 251 163.351" fill="#DDE3E9"/>
<rect x="286" y="10" width="5" height="136" fill="#DDE3E9"/>
</g>
<path d="M793.897 308.236L832.322 286.27C834.782 284.863 837.803 284.863 840.263 286.27L932.838 339.192C937.822 342.041 940.897 347.342 940.897 353.082V678" stroke="#CBCBCB" stroke-width="8"/>
<rect x="910.897" y="677" width="59" height="7" rx="3" fill="#AFB9C5"/>
<path d="M758.396 297.335C771.283 284.447 792.178 284.447 805.065 297.335V297.335C817.952 310.222 817.952 331.116 805.065 344.004L785.266 363.803L738.597 317.134L758.396 297.335Z" fill="#C5CFD6"/>
<path fill-rule="evenodd" clip-rule="evenodd" d="M758.125 344.527C771.012 357.414 783.517 365.804 786.056 363.265C788.594 360.727 780.205 348.222 767.317 335.335C754.43 322.447 741.925 314.058 739.387 316.596C736.848 319.135 745.238 331.64 758.125 344.527Z" fill="#F2F2F2"/>
<path fill-rule="evenodd" clip-rule="evenodd" d="M107.258 446.173C110.123 445.823 113.18 445.947 115.844 447.077C121.509 449.482 123.119 456.174 123.041 461.614C122.957 467.468 121.714 473.863 126.165 478.58C128.211 480.748 130.756 482.408 132.765 484.617C134.912 486.977 136.597 489.677 137.844 492.577C140.134 497.903 141.258 504.167 139.164 509.754C137.32 514.674 132.681 519.114 133.683 524.708C134.729 530.543 140.612 535.004 144.29 539.351C148.453 544.269 152.286 550.556 152.916 557.006C153.519 563.188 150.828 569.44 146.699 574.113C138.448 583.451 126.045 588.028 113.54 588C108.23 587.988 102.219 587.748 97.6366 584.895C96.2204 584.013 95.4733 583.023 94.6315 581.648C93.8767 580.414 92.8796 579.612 91.7255 578.739C89.1899 576.822 87.3587 574.239 86.1901 571.347C81.6522 560.114 85.2792 546.218 91.6312 536.243C93.1364 533.88 94.3686 531.605 93.6374 528.789C92.8744 525.848 90.999 523.196 89.3403 520.669C87.7011 518.17 85.8299 515.787 84.5488 513.087C83.207 510.257 82.8292 507.294 83.0662 504.198C83.5118 498.381 86.0227 493.013 89.5777 488.336C93.0017 483.83 97.0221 479.518 97.0311 473.615C97.041 467.357 92.8577 461.791 94.6399 455.429C95.3778 452.795 96.86 450.092 99.2486 448.513C101.539 446.998 104.564 446.502 107.258 446.173Z" fill="#DDE3E9"/>
<path fill-rule="evenodd" clip-rule="evenodd" d="M105.386 456.176C105.44 455.336 106.437 454.832 107.222 455.051C108.254 455.34 108.235 456.305 108.207 457.165C108.124 459.808 108.506 462.377 109.142 464.942C110.462 470.274 112.903 475.186 114.836 480.308C116.768 485.425 117.675 490.709 116.542 496.124C115.473 501.23 113.795 506.203 112.701 511.315C111.738 515.821 110.712 520.573 112.18 525.067C113.592 529.393 116.714 532.916 118.962 536.825C123.617 544.918 125.681 553.896 125.957 563.135C126.085 567.425 125.97 571.755 124.975 575.963C124.402 578.386 123.632 581.66 121.556 583.333C120.599 584.105 118.961 584.371 118.155 583.229C117.399 582.158 118.062 580.499 118.303 579.357C119.343 574.413 119.552 569.361 119.303 564.342C119.062 559.48 118.487 554.626 116.957 549.982C115.537 545.673 113.379 541.802 110.84 538.032C108.252 534.191 105.562 530.341 104.493 525.789C103.406 521.166 104.289 516.462 105.469 511.927C106.717 507.131 108.352 502.472 110.042 497.805C111.689 493.258 112.272 488.955 111.363 484.196C109.567 474.794 104.76 465.968 105.386 456.176Z" fill="#C5CFD6"/>
<path fill-rule="evenodd" clip-rule="evenodd" d="M182.892 457.582C186.437 458.659 189.958 460.395 192.485 463.118C197.858 468.909 196.209 477.661 193.243 484.053C190.05 490.933 185.212 497.849 187.94 505.743C189.193 509.372 191.301 512.659 192.49 516.316C193.761 520.224 194.309 524.294 194.239 528.372C194.11 535.862 192.118 543.855 186.708 549.373C181.945 554.232 174.158 557.07 172.377 564.206C170.518 571.651 175.061 579.988 177.078 587.041C179.36 595.024 180.533 604.453 177.862 612.409C175.303 620.034 168.842 626.028 161.528 629.406C146.915 636.156 129.949 635.117 115.296 628.578C109.075 625.801 102.151 622.391 98.2845 616.633C97.0897 614.853 96.7364 613.294 96.476 611.23C96.2426 609.378 95.4972 607.911 94.6048 606.278C92.644 602.692 91.8618 598.684 92.0198 594.656C92.6345 579.011 104.234 564.464 116.956 555.972C119.971 553.96 122.618 551.912 123.249 548.2C123.909 544.325 123.111 540.213 122.501 536.361C121.899 532.554 120.964 528.763 120.889 524.902C120.811 520.858 121.933 517.157 123.848 513.619C127.445 506.972 133.227 501.93 139.87 498.247C146.267 494.7 153.262 491.692 156.393 484.715C159.712 477.32 157.747 468.561 163.2 461.964C165.458 459.233 168.625 456.807 172.262 456.182C175.749 455.583 179.558 456.57 182.892 457.582Z" fill="#DDE3E9"/>
<path fill-rule="evenodd" clip-rule="evenodd" d="M175.651 469.811C176.154 468.844 177.584 468.769 178.387 469.44C179.443 470.324 178.914 471.456 178.432 472.46C176.95 475.547 176.052 478.789 175.452 482.159C174.204 489.166 174.485 496.262 174.063 503.341C173.642 510.414 171.935 517.147 167.774 522.965C163.85 528.452 159.283 533.462 155.327 538.943C151.841 543.773 148.153 548.863 147.516 554.954C146.901 560.817 148.707 566.626 149.288 572.434C150.492 584.457 148.204 596.171 143.688 607.257C141.591 612.405 139.189 617.472 135.821 621.933C133.882 624.503 131.267 627.977 127.963 628.869C126.44 629.281 124.385 628.739 124.042 626.964C123.718 625.298 125.363 623.682 126.242 622.455C130.047 617.146 132.938 611.273 135.275 605.198C137.54 599.314 139.41 593.265 140.053 586.963C140.649 581.116 140.153 575.401 139.158 569.606C138.144 563.701 137.015 557.732 138.149 551.781C139.3 545.736 142.795 540.628 146.55 535.876C150.521 530.85 154.873 526.19 159.293 521.549C163.6 517.027 166.536 512.238 167.966 506.126C170.79 494.049 169.791 481.078 175.651 469.811Z" fill="#C5CFD6"/>
<path fill-rule="evenodd" clip-rule="evenodd" d="M73.306 502C79.2003 502 84.3823 505.124 87.9531 509.558C92.133 514.748 92.9772 521.086 94.6745 527.272C95.5191 530.35 96.9717 533.406 99.5174 535.498C101.833 537.4 104.772 537.78 107.543 538.71C113.082 540.567 117.555 545.041 119.321 550.499C121.476 557.158 119.193 563.873 119.586 570.622C119.947 576.819 126.058 580.685 130.974 583.656C135.821 586.586 140.189 589.328 141.649 595.035C143.197 601.088 143.716 607.844 141.572 613.823C138.002 623.779 127.552 628.163 117.456 628.842C108.293 629.459 96.7719 628.491 89.8907 621.84C85.773 617.86 84.2819 612.293 84.4669 606.755C84.5818 603.311 85.264 599.899 86.146 596.571C86.7711 594.213 87.6157 591.864 87.8563 589.427C88.4959 582.942 82.5026 581.697 77.401 579.916C70.9183 577.654 66.3799 573.38 63.224 567.425C60.285 561.881 59.0519 555.658 60.8137 549.554C61.7135 546.437 63.3456 543.61 65.559 541.205C66.5334 540.146 67.9066 539.263 68.7861 538.151C69.6069 537.112 69.4282 535.766 69.1453 534.55C67.8373 528.931 63.762 524.278 62.3045 518.668C60.9887 513.605 61.7665 507.304 66.3954 504.038C68.3953 502.627 70.8616 502.016 73.306 502Z" fill="#C5CFD6"/>
<path fill-rule="evenodd" clip-rule="evenodd" d="M81.3377 516.641C87.585 523.296 89.2831 532.325 89.7815 541.076C90.0606 545.983 89.7701 551.159 91.2118 555.919C92.4454 559.993 95.3373 563.107 98.3183 566.051C104.319 571.975 111.011 577.999 112.766 586.574C113.796 591.606 113.101 596.804 114.524 601.78C115.817 606.304 118.096 610.748 120.867 614.568C123.098 617.645 126.004 620 128.443 622.867C129.187 623.743 130.253 625.031 129.946 626.267C129.586 627.714 127.743 628.172 126.435 627.945C123.386 627.415 120.819 624.503 118.825 622.386C115.91 619.291 113.432 615.962 111.419 612.227C109.183 608.08 107.383 603.679 106.614 599.026C105.816 594.199 106.213 589.168 104.391 584.535C101.324 576.74 93.886 572.14 88.5082 566.064C81.8077 558.494 82.807 549.072 83.4933 539.759C83.8703 534.641 84.2451 528.862 81.6591 524.189C80.672 522.406 78.4711 520.743 78.0467 518.715C77.6579 516.858 79.7797 514.981 81.3377 516.641Z" fill="#AFB9C5"/>
<path fill-rule="evenodd" clip-rule="evenodd" d="M88.0004 626C88.0004 664.058 94.2112 684 127 684C159.789 684 166 664.058 166 626H88.0004Z" fill="#89C5CC"/>
<rect x="223" y="571" width="38" height="9" rx="2" fill="#AFB9C5"/>
<path fill-rule="evenodd" clip-rule="evenodd" d="M240.217 498H242H243H244.783C245.301 513.419 247.707 528.085 252 542H258.5C267.06 542 274 548.94 274 557.5C274 566.06 267.06 573 258.5 573H225.5C216.94 573 210 566.06 210 557.5C210 548.94 216.94 542 225.5 542H233C239.44 521.128 240.217 498 240.217 498Z" fill="#DDE3E9"/>
<path fill-rule="evenodd" clip-rule="evenodd" d="M206.622 428.679C206.622 428.679 223.811 427 241 427C258.189 427 275.378 428.679 275.378 428.679L280 508.133C280 508.133 260.5 510 241 510C221.5 510 202 508.133 202 508.133L206.622 428.679Z" fill="#C5CFD6"/>
<path fill-rule="evenodd" clip-rule="evenodd" d="M179 684V602V580H200H283H304V602V684H283V602H200V684H179Z" fill="#F2F2F2"/>
<path fill-rule="evenodd" clip-rule="evenodd" d="M707.381 402.208C716.214 423.197 731.229 437.781 739.182 459.605C743.898 472.547 745.864 486.62 745.983 501.032C746.048 508.86 745.911 516.694 745.875 524.522C745.839 532.156 745.632 539.741 744.984 547.327C744.332 554.952 743.603 562.487 743.282 570.159C743.031 576.137 742.917 583.091 740.891 588.544C739.279 592.881 735.183 593.516 734.097 588.256C733.493 585.333 733.569 582.068 733.636 579.063C733.721 575.208 733.945 571.359 734.06 567.504C734.519 552.036 733.923 536.566 734.235 521.092C734.539 505.973 736.482 490.871 734.332 475.853C732.556 463.452 728.046 452.802 722.862 442.593C717.874 432.771 712.445 423.187 709.075 412.014C708.107 408.806 707.359 405.481 707 402.03C707.157 401.957 707.284 402.016 707.381 402.208Z" fill="#C1DEE2"/>
<path fill-rule="evenodd" clip-rule="evenodd" d="M704.974 443.617C706.723 444.88 707.7 446.728 708.882 448.551C710.352 450.817 712.081 452.863 713.551 455.131C716.615 459.86 719.308 464.879 722.102 469.799C727.406 479.137 731.433 489.091 733.427 499.895C735.495 511.092 736.052 522.648 736.919 534.012C737.839 546.056 738.765 558.188 738.887 570.279C738.942 575.696 739.235 581.446 738.584 586.825C738.179 590.173 736.668 593.027 733.261 593C726.025 592.942 722.627 584.927 721.208 578.354C719.119 568.674 718.702 558.393 719.033 548.494C719.432 536.558 721.504 524.802 722.4 512.912C723.35 500.325 722.814 487.96 718.486 476.109C716.3 470.12 713.763 464.274 711.484 458.325C710.514 455.792 709.719 453.19 708.409 450.831C706.951 448.208 705.142 445.826 704 443C704.324 443.206 704.649 443.411 704.974 443.617Z" fill="#89C5CC"/>
<path fill-rule="evenodd" clip-rule="evenodd" d="M788.334 418.518C788.556 418.345 788.778 418.173 789 418C788.361 420.693 787.207 422.88 786.324 425.341C785.531 427.554 785.129 430.058 784.595 432.477C783.34 438.158 781.89 443.711 780.706 449.44C778.36 460.777 778.804 472.99 780.342 485.568C781.795 497.45 784.092 509.313 785.187 521.192C786.095 531.043 786.485 541.202 785.619 550.601C785.031 556.984 783.103 564.606 777.848 563.962C775.374 563.659 774.084 560.681 773.564 557.32C772.729 551.922 772.554 546.246 772.229 540.878C771.502 528.896 771.358 516.951 771.214 505.092C771.078 493.904 770.705 482.494 771.452 471.587C772.173 461.063 774.428 451.58 777.653 442.83C779.351 438.22 780.97 433.502 782.878 429.108C783.793 427.001 784.911 425.139 785.827 423.033C786.563 421.339 787.148 419.601 788.334 418.518Z" fill="#C1DEE2"/>
<path fill-rule="evenodd" clip-rule="evenodd" d="M707.209 478.302C708.166 476.695 710.272 481.993 710.593 482.66C710.457 482.328 710.321 481.997 710.184 481.667C712.083 484.825 713.821 488.113 714.901 491.734C715.97 495.319 716.888 498.977 717.891 502.587C719.774 509.361 722.202 515.943 723.907 522.778C725.569 529.438 725.988 535.986 725.585 542.875C725.167 550.035 724.911 557.306 725.399 564.462C725.632 567.88 726.743 571.064 727.504 574.354C728.266 577.648 728.866 580.986 729.767 584.239C729.974 583.815 730 585.232 730 585.339C729.994 586.152 729.881 586.833 729.619 587.604C728.948 589.586 727.691 591.269 725.778 591.816C722.322 592.803 719.112 589.659 717.998 586.339C716.399 581.575 715.517 576.311 714.755 571.304C714.057 566.713 713.891 562.094 714.099 557.44C714.508 548.261 716.169 539.202 716.618 530.026C717.107 520.036 715.128 510.649 713.471 500.925C712.673 496.239 711.91 491.598 710.356 487.134C709.727 485.326 708.907 483.731 708.048 482.061C707.558 481.112 706.569 479.418 707.209 478.302Z" fill="#C1DEE2"/>
<path fill-rule="evenodd" clip-rule="evenodd" d="M735.252 462.697C734.856 474.142 734.172 485.5 732.646 496.824C731.089 508.38 729.3 519.897 727.802 531.463C726.343 542.722 724.815 554.168 725.018 565.585C725.168 573.993 723.774 588.219 733.113 592.369C742.572 596.572 744.601 578.623 745.222 572.699C746.412 561.333 746.027 549.847 745.449 538.419C744.856 526.689 743.866 515.02 742.64 503.334C741.277 490.353 740.208 477.314 739.349 464.296C738.925 457.857 738.82 451.429 738.937 444.988C739.048 438.911 738.817 432.77 736.656 427C736.543 427.082 736.431 427.164 736.318 427.246" fill="#69A1AC"/>
<path fill-rule="evenodd" clip-rule="evenodd" d="M784.083 498.955C782.382 501.433 780.667 503.887 779.061 506.512C776.186 511.209 773.587 516.432 772.805 523.147C771.169 537.2 772.481 552.379 772.798 566.863C772.863 569.822 772.489 572.693 773.655 575.51C774.713 578.064 776.691 580.01 778.576 580C782.611 579.977 781.995 570.095 782.002 565.746C782.014 558.123 781.159 550.422 781.233 542.806C781.306 535.26 781.765 527.694 782.859 520.528C783.967 513.275 785.589 506.309 787.729 499.81C788.026 498.908 790.158 491.937 788.144 493.139" fill="#89C5CC"/>
<path fill-rule="evenodd" clip-rule="evenodd" d="M766.262 424C763.609 424 763.625 437.226 763.546 438.925C763.257 445.055 763.325 451.188 763.143 457.319C762.744 470.701 762.254 484.2 760.243 497.426C759.161 504.547 757.907 511.636 756.557 518.702C755.204 525.789 753.387 532.867 752.497 540.044C751.642 546.943 752.125 553.977 752.242 560.91C752.359 567.885 752.57 574.874 753.484 581.788C753.709 583.494 753.974 585.195 754.257 586.891C754.492 588.305 754.355 590.058 754.754 591.401C755.393 593.552 758.133 594.256 759.978 593.92C764.97 593.009 768.159 586.74 769.865 582.16C772.043 576.311 773.199 569.967 774.339 563.804C775.631 556.821 776.388 549.732 776.743 542.623C777.466 528.175 776.539 513.712 775.504 499.31C774.928 491.301 774.263 483.327 773.246 475.367C772.232 467.441 770.932 459.55 770.086 451.601C769.471 445.825 768.865 440.04 768.467 434.241C768.371 432.859 768.291 424 766.262 424" fill="#69A1AC"/>
<path fill-rule="evenodd" clip-rule="evenodd" d="M762.941 520.139C762.508 506.253 756.927 445.259 755.657 428.467C755.339 424.264 752.282 406.765 751.885 402C750.81 403.347 750.901 424.309 750.913 429.126C750.926 433.891 750.335 438.576 750.031 443.315C749.721 448.151 742.572 510.601 741.645 515.247C739.799 524.491 738.564 533.976 737.611 543.428C736.683 552.639 735.24 562.358 736.482 571.618C736.767 573.75 737.219 575.848 737.955 577.806C738.749 579.922 739.294 581.879 739.932 584.093C740.958 587.659 742.815 590.789 745.668 592.262C751.517 595.281 754.658 588.447 756.251 582.497C758.793 572.995 760.426 563.338 761.191 553.359C762.037 542.318 763.287 531.255 762.941 520.139" fill="#89C5CC"/>
<rect x="701" y="561" width="91" height="91" rx="2" fill="white"/>
<rect x="691" y="571" width="10" height="113" rx="2" fill="#C5CFD6"/>
<rect x="741" y="571" width="10" height="113" rx="2" fill="#C5CFD6"/>
<rect x="792" y="571" width="10" height="113" rx="2" fill="#C5CFD6"/>
<defs>
<clipPath id="clip0_5_4186">
<rect width="926.295" height="376.2" fill="white" transform="translate(39.6201 284.188)"/>
</clipPath>
</defs>
</svg>
