<svg width="2220" height="2040" viewBox="0 0 2220 2040" fill="none" xmlns="http://www.w3.org/2000/svg">
<g id="Scene/Plants">
<g id="Background Shape 2" opacity="0.504511">
<path id="Background Shape" fill-rule="evenodd" clip-rule="evenodd" d="M2055.48 1472.39C2083.05 1678.61 1414.45 1813.12 838.978 1719.25C263.503 1625.37 -0.498161 1258.8 274.109 1063.47C548.716 868.14 2027.91 1266.17 2055.48 1472.39Z" fill="#F2F2F2"/>
</g>
<path id="Leaf Bottom" fill-rule="evenodd" clip-rule="evenodd" d="M1228.4 613.058C1238.8 605.106 1254.94 610.174 1265.41 614.868C1269.44 616.678 1279.76 622.467 1287.41 628.983C1286.39 624.467 1285.49 619.911 1284.71 615.318C1281.47 596.432 1279.24 577.188 1278.17 558.056C1277.89 553.066 1278.25 547.49 1278.62 541.842L1278.62 541.834C1278.75 539.923 1278.87 538.003 1278.97 536.095C1278.56 535.644 1278.27 535.021 1278.15 534.177C1278.11 534.527 1278.08 534.807 1278.07 535.022C1278.03 535.37 1278.02 535.544 1277.96 535.558C1277.91 535.572 1277.81 535.425 1277.62 535.129C1277.54 535.014 1277.45 534.877 1277.35 534.718C1269.61 523.139 1263.11 510.091 1262.21 495.748C1261.46 483.584 1271.45 460.568 1285.61 476.501C1291.95 483.617 1290.3 533.591 1280.78 536.653C1283.33 553.213 1286.52 569.745 1290.53 586.066C1291.13 585.96 1291.74 585.951 1292.34 586.033C1292.29 581.976 1292.28 577.548 1292.45 576.025C1293.87 562.909 1304.82 536.28 1322.26 541.45C1335.65 545.424 1327.44 561.78 1322.88 568.938C1315.55 580.464 1307.24 585.454 1296.73 591.448C1296.52 593.925 1294.92 595.365 1293.04 595.833C1300.08 622.191 1309.33 647.899 1321.43 672.183L1321.75 670.638L1321.75 670.637C1323.29 663.267 1325.08 654.674 1326.22 652.87C1332.15 643.423 1345.28 631.885 1357.39 637.474C1382.83 649.23 1355.22 683.016 1333.56 686.691C1332.66 687.936 1331.71 688.937 1330.7 689.511C1334.91 696.841 1339.4 704.018 1344.21 711.011C1351.43 721.529 1359.19 732.013 1367.32 742.436C1367.57 734.283 1370.78 716.112 1371.7 714.159C1377.25 702.303 1393.25 690.103 1406.24 698.526C1420.84 708.023 1407.6 725.968 1399.27 734.089C1395.86 737.419 1378.97 749.621 1373.01 749.676C1392.66 774.255 1414.34 798.412 1436.38 821.697C1434.56 811.273 1432.17 782.567 1432.44 779.381C1433.81 762.936 1444.61 736.633 1465.89 743.042C1486.53 749.25 1477.4 776.575 1470.33 789.601C1466.05 797.484 1460.13 805.494 1452.99 810.992C1451.71 811.983 1450.03 812.792 1448.35 813.599C1446.33 814.573 1444.31 815.544 1442.99 816.83C1441.81 817.976 1441.45 819.293 1441.1 820.598C1440.72 821.976 1440.34 823.342 1439.02 824.483C1450.93 837.011 1462.93 849.279 1474.75 861.206C1480.33 866.836 1486.01 872.356 1491.75 877.807C1494.88 876.505 1499.36 878.218 1499.13 882.665C1499.09 883.311 1498.94 883.868 1498.74 884.38C1503.09 888.427 1507.46 892.445 1511.87 896.42C1511.77 895.263 1511.8 893.629 1512.01 891.374C1508.83 895.893 1508.96 889.311 1509.06 884.293C1509.1 882.52 1509.13 880.943 1509.01 880.119C1508.55 876.895 1507.94 873.702 1507.34 870.514C1506.05 863.704 1504.77 856.916 1504.83 849.888C1504.97 834.97 1514.41 809.962 1534.28 818.846C1552.55 826.999 1545.9 849.109 1539.01 862.971C1534.65 871.743 1528.68 879.575 1522.44 887.074C1521.33 888.412 1520.09 890.224 1518.87 892.019C1517.05 894.683 1515.27 897.307 1513.94 898.284C1530.91 913.5 1548.27 928.269 1565.63 943.039L1565.64 943.047C1573.41 949.66 1581.19 956.274 1588.92 962.928C1589.26 961.467 1589.54 960.019 1589.78 958.664C1589.29 959.211 1588.64 959.466 1587.79 959.416C1587.57 958.296 1587.24 956.809 1586.85 955.021C1582.07 933.203 1567.51 866.75 1606.93 879.629C1635.82 889.093 1615.43 946.957 1593.89 967.198C1606.96 978.499 1619.91 989.945 1632.56 1001.73C1641.71 1010.26 1650.59 1019.08 1659.14 1028.2C1654.72 1016.39 1650.55 1001.12 1653.28 988.955C1657.26 971.259 1675.92 954.551 1694.13 964.62C1716.83 977.227 1699.36 994.445 1682.99 1010.59C1674.62 1018.84 1666.54 1026.8 1664.24 1033.73C1691.4 1063.63 1714.59 1096.85 1730.08 1134.69C1746.93 1175.84 1762.57 1231.13 1753.92 1277.17C1755.52 1256.93 1748.69 1231.51 1743.89 1213.66C1743.24 1211.23 1742.62 1208.94 1742.07 1206.82C1734.86 1179.13 1724.62 1152.2 1711.12 1126.98C1689.51 1086.6 1660.95 1052.32 1627.99 1021.2C1620.48 1023.82 1612.33 1028.67 1605.58 1032.68C1601.44 1035.15 1597.82 1037.29 1595.21 1038.42C1582.59 1043.87 1558.38 1051.68 1550.34 1034.52C1542.44 1017.65 1562.61 1008.21 1575.1 1004.43C1587.18 1000.78 1598.07 1001.22 1609.34 1004.21C1591.89 988.722 1574.02 973.725 1556.14 958.73L1556.14 958.727C1552.85 955.969 1549.57 953.212 1546.28 950.452C1541.74 954.181 1536.72 959.572 1531.4 965.295C1514.49 983.461 1494.46 1004.98 1476.57 987.399C1449.57 960.864 1501.21 933.895 1523.2 936.001C1525.9 936.257 1528.52 936.827 1531.07 937.603C1508.63 918.536 1486.54 899.076 1465.66 878.248C1461.91 878.933 1455.94 884.455 1448.77 891.089C1432.66 906 1410.48 926.525 1393.78 910.364C1381.72 898.697 1385.85 880.527 1397.5 870.138C1409.21 859.703 1426.17 859.721 1440.59 863.235C1446.83 864.747 1452.58 867.632 1457.94 871.148C1458.17 871.16 1458.39 871.174 1458.61 871.185C1438.05 850.473 1417.37 829.296 1397.45 807.396C1397.11 807.508 1396.75 807.623 1396.39 807.74C1395.19 809.217 1393.17 809.757 1391.32 809.431C1390.31 809.78 1389.27 810.14 1388.21 810.506C1372.43 815.959 1352.15 822.967 1336.43 819.944C1324.85 817.72 1314.35 808.299 1324.15 796.701C1332.11 787.269 1353.72 788.623 1364.26 790.857C1369.4 791.949 1375 795.112 1380.62 798.285C1382.98 799.618 1385.34 800.953 1387.67 802.138C1388.28 800.913 1389.34 800.127 1390.54 799.749C1370.87 777.742 1352.11 754.974 1335.08 731.217C1329.93 732.016 1324.22 734.282 1318.32 736.62C1304.14 742.244 1288.92 748.28 1278 735.28C1261.87 716.084 1292.2 704.88 1306.62 706.703C1311.49 707.318 1316.29 708.7 1320.92 710.525C1308.53 690.965 1299.07 670.058 1292.43 648.1C1292.36 648.133 1292.3 648.166 1292.24 648.199L1292.24 648.2C1292.15 648.252 1292.06 648.305 1291.94 648.356C1292.04 648.301 1292.13 648.245 1292.22 648.189L1292.22 648.188L1292.22 648.188C1292.28 648.146 1292.35 648.104 1292.42 648.064C1291.75 645.867 1291.12 643.661 1290.51 641.446C1289.38 640.818 1288.33 640.356 1287.83 640.166C1294.38 644.688 1266.74 646.901 1261.57 647.316C1250.13 648.23 1234.8 648.572 1226.4 639.186C1219.35 631.302 1219.77 619.655 1228.4 613.058ZM1755.15 1277.23C1754.66 1283.91 1753.46 1290.01 1751.21 1295.05C1752.9 1289.32 1754.19 1283.36 1755.15 1277.23Z" fill="#F2F2F2"/>
<path id="Leaf Top" opacity="0.2" fill-rule="evenodd" clip-rule="evenodd" d="M708.891 186.989C701.299 181.243 689.513 184.913 681.865 188.312C678.918 189.622 671.386 193.812 665.8 198.527C666.539 195.26 667.199 191.966 667.775 188.644C670.145 174.987 671.779 161.071 672.569 147.236C672.775 143.627 672.511 139.596 672.244 135.512L672.244 135.509C672.154 134.126 672.063 132.737 671.99 131.356C672.296 131.03 672.503 130.579 672.59 129.969C672.622 130.222 672.64 130.425 672.654 130.58C672.677 130.831 672.688 130.958 672.728 130.968C672.769 130.978 672.84 130.871 672.981 130.657C673.036 130.574 673.101 130.475 673.18 130.36C678.835 121.984 683.585 112.547 684.243 102.176C684.799 93.3792 677.513 76.7402 667.167 88.2665C662.538 93.4142 663.721 129.55 670.668 131.761C668.806 143.736 666.466 155.691 663.537 167.495C663.098 167.418 662.652 167.412 662.21 167.471C662.253 164.537 662.259 161.335 662.139 160.235C661.102 150.751 653.116 131.5 640.385 135.245C630.602 138.123 636.591 149.947 639.917 155.121C645.271 163.453 651.331 167.058 659.005 171.388C659.158 173.179 660.323 174.22 661.699 174.558C656.549 193.62 649.787 212.213 640.94 229.776L640.706 228.66C639.586 223.331 638.281 217.118 637.453 215.813C633.125 208.984 623.54 200.646 614.696 204.692C596.121 213.202 616.266 237.622 632.075 240.272C632.732 241.172 633.427 241.895 634.167 242.31C631.092 247.612 627.806 252.803 624.29 257.861C619.018 265.47 613.352 273.053 607.412 280.593C607.232 274.698 604.889 261.56 604.223 260.148C600.174 251.577 588.494 242.762 579.011 248.857C568.345 255.729 578.006 268.7 584.084 274.57C586.575 276.976 598.9 285.793 603.248 285.831C588.897 303.611 573.058 321.087 556.954 337.932C558.292 330.394 560.044 309.636 559.851 307.332C558.858 295.441 550.981 276.426 535.442 281.068C520.366 285.565 527.024 305.32 532.179 314.736C535.301 320.435 539.62 326.225 544.829 330.198C545.768 330.914 546.995 331.498 548.219 332.081C549.696 332.784 551.169 333.486 552.132 334.415C552.99 335.244 553.253 336.195 553.513 337.139C553.789 338.136 554.062 339.123 555.03 339.948C546.328 349.011 537.564 357.887 528.926 366.515C524.85 370.588 520.701 374.582 516.51 378.526C514.219 377.585 510.951 378.826 511.119 382.041C511.144 382.509 511.253 382.911 511.399 383.281C508.224 386.209 505.028 389.116 501.807 391.992C501.881 391.155 501.86 389.974 501.713 388.344C504.029 391.61 503.935 386.851 503.863 383.222C503.837 381.94 503.815 380.8 503.902 380.204C504.244 377.872 504.686 375.563 505.127 373.258C506.07 368.333 507.009 363.424 506.965 358.342C506.869 347.555 499.985 329.476 485.476 335.907C472.135 341.809 476.98 357.795 482.006 367.815C485.188 374.157 489.544 379.818 494.096 385.238C494.908 386.205 495.809 387.515 496.701 388.812C498.025 390.738 499.33 392.635 500.295 393.341C487.906 404.349 475.226 415.034 462.545 425.72L462.542 425.722L462.539 425.725C456.859 430.511 451.179 435.297 445.525 440.112C445.28 439.056 445.077 438.009 444.902 437.029C445.256 437.425 445.737 437.609 446.354 437.573C446.519 436.763 446.757 435.687 447.044 434.394C450.543 418.616 461.199 370.558 432.407 379.886C411.311 386.74 426.177 428.573 441.901 443.202C432.35 451.378 422.89 459.659 413.651 468.188C406.966 474.358 400.478 480.741 394.236 487.335C397.469 478.798 400.516 467.749 398.524 458.956C395.624 446.162 382.012 434.087 368.712 441.375C352.131 450.5 364.877 462.943 376.829 474.612C382.932 480.57 388.828 486.327 390.508 491.336C370.667 512.968 353.725 536.996 342.399 564.364C330.081 594.125 318.64 634.113 324.939 667.4C323.78 652.763 328.777 634.381 332.287 621.471C332.765 619.713 333.215 618.057 333.618 616.525C338.892 596.503 346.379 577.021 356.242 558.785C372.04 529.577 392.901 504.78 416.981 482.263C422.461 484.153 428.412 487.656 433.34 490.557C436.363 492.337 439.002 493.89 440.911 494.706C450.118 498.641 467.797 504.278 473.671 491.867C479.446 479.662 464.724 472.846 455.601 470.115C446.783 467.481 438.833 467.804 430.605 469.971C443.351 458.765 456.408 447.913 469.462 437.064C471.863 435.068 474.264 433.073 476.662 431.075C479.978 433.77 483.639 437.666 487.527 441.803C499.865 454.932 514.483 470.486 527.551 457.765C547.273 438.568 509.583 419.086 493.52 420.617C491.548 420.803 489.64 421.217 487.78 421.778C504.167 407.983 520.3 393.903 535.559 378.835C538.296 379.329 542.651 383.32 547.882 388.114L547.883 388.114C559.64 398.89 575.826 413.724 588.03 402.031C596.839 393.591 593.831 380.453 585.323 372.945C576.783 365.404 564.395 365.423 553.864 367.97C549.312 369.065 545.112 371.154 541.196 373.698C541.029 373.707 540.87 373.717 540.71 373.725C555.725 358.74 570.832 343.42 585.383 327.577C585.637 327.658 585.897 327.741 586.158 327.825C587.037 328.893 588.509 329.283 589.858 329.046C590.594 329.296 591.347 329.553 592.115 329.816L592.134 329.822C603.652 333.759 618.455 338.819 629.937 336.628C638.388 335.015 646.059 328.199 638.91 319.816C633.099 312.999 617.321 313.986 609.626 315.606C605.871 316.397 601.782 318.686 597.68 320.983C595.956 321.948 594.23 322.914 592.525 323.771C592.083 322.886 591.311 322.318 590.432 322.045C604.801 306.124 618.512 289.654 630.95 272.469C634.711 273.045 638.883 274.681 643.185 276.369C653.538 280.431 664.649 284.79 672.63 275.386C684.412 261.499 662.271 253.409 651.744 254.733C648.189 255.179 644.683 256.18 641.299 257.501C650.35 243.353 657.265 228.232 662.126 212.352C662.173 212.376 662.216 212.4 662.26 212.424C662.328 212.462 662.396 212.5 662.48 212.536C662.407 212.497 662.343 212.456 662.279 212.415C662.232 212.385 662.184 212.355 662.134 212.326C662.619 210.737 663.084 209.141 663.528 207.54C664.35 207.085 665.119 206.751 665.487 206.613C660.702 209.886 680.879 211.475 684.658 211.773C693.012 212.43 704.203 212.672 710.336 205.882C715.486 200.178 715.189 191.756 708.891 186.989ZM323.688 666.087C324.057 670.532 325.153 674.589 327.312 677.913C325.727 674.114 324.539 670.157 323.688 666.087Z" fill="#C1DEE2"/>
<g id="Plant Right" opacity="0.7">
<path id="Leaf Me Alone!" fill-rule="evenodd" clip-rule="evenodd" d="M1529.47 971.31C1570.42 969.185 1621.08 993.092 1625.45 1037.61C1628.62 1069.96 1627.64 1102.22 1632.55 1134.51C1636.48 1160.33 1644.78 1185.11 1656.11 1208.62C1667.01 1231.23 1689.61 1250.48 1695.49 1274.64C1699.23 1290.03 1697.14 1311.68 1691.97 1326.74C1685.69 1345.04 1689.03 1343.59 1701.55 1358.95C1726.08 1389.05 1748.17 1419.92 1763.79 1455.87C1786.29 1507.65 1801.04 1568.17 1792.69 1624.85C1791.63 1632.05 1790.37 1657.88 1780.46 1659.69C1769.39 1661.71 1774.56 1646.93 1775.16 1642.16C1778.92 1611.71 1782.27 1585.1 1777.73 1554.18C1760.19 1434.86 1674.6 1356.25 1618.87 1254.99C1615.81 1249.77 1609.34 1237.34 1604.84 1229.13C1597.74 1216.18 1590.6 1191.54 1580.99 1181.93C1562.89 1163.84 1579.53 1200.21 1583.06 1207.16C1587.52 1215.94 1592.43 1225.27 1597 1232.97C1617.91 1268.64 1641.24 1307.59 1662.84 1344.36C1569.44 1365.64 1503.66 1253.36 1478.6 1179.53C1457.95 1118.71 1433.24 976.514 1529.47 971.31Z" fill="#69A1AC"/>
<path id="Leaf Me Alone!_2" fill-rule="evenodd" clip-rule="evenodd" d="M2078.42 858.364C2009.95 863.796 1965.99 908.975 1945.53 972.167C1934.5 1006.22 1933.24 1041.2 1927.11 1076.2C1917.89 1128.85 1898.06 1168.75 1859.29 1206.27C1847.28 1217.88 1838.44 1229.81 1832.15 1242.57C1819.66 1255.31 1808.79 1269.73 1800.81 1287.36C1790.61 1309.87 1787.72 1336.88 1799.5 1359.33C1802.66 1365.36 1810.56 1377.47 1818.75 1382.98C1788.1 1448.26 1771.25 1519.75 1773.14 1591.16C1774.29 1634.26 1776.4 1677.38 1778.85 1720.43C1779.51 1731.99 1783.28 1751.08 1788.93 1731.69C1794.11 1713.96 1787.62 1686.12 1787.02 1667.6C1784.09 1577.36 1781.6 1495.31 1818.75 1410.99C1822.64 1402.16 1826.77 1393.39 1831.07 1384.69C1831.32 1384.55 1831.56 1384.37 1831.8 1384.2C1831.96 1384.33 1832.11 1384.46 1832.27 1384.59C1832.55 1384.1 1832.92 1383.51 1833.36 1382.86C1834.6 1381.59 1835.67 1379.98 1836.7 1378.18C1839.99 1373.62 1843.72 1368.25 1843.74 1365.32C1843.74 1365.29 1843.73 1365.26 1843.73 1365.24C1866.73 1327.7 1893.07 1292.22 1919.97 1257.45C1919.77 1257.7 1949.15 1217.69 1944.61 1239.82C1942.42 1250.48 1920.81 1270.79 1912.08 1282.08C1892.77 1307.21 1870.09 1339.04 1851.25 1369.83C1848.71 1371.29 1845.13 1378.44 1842.54 1383.77C1841.11 1386.47 1839.77 1389.19 1838.46 1391.56C1905.23 1413.62 1957.17 1369.19 1992.59 1317.5C1992.63 1317.44 1992.67 1317.38 1992.71 1317.32C2003.49 1303.04 2014.53 1288.86 2028.32 1277.57C2051.33 1258.73 2075.98 1255.41 2103.11 1246.13C2177.1 1220.85 2208.56 1124.96 2218.55 1053.81C2229.82 973.538 2174.68 850.449 2078.42 858.364Z" fill="#89C5CC"/>
<path id="Leaf Me Alone!_3" fill-rule="evenodd" clip-rule="evenodd" d="M1943.17 633.572C1872.9 706.708 1838.95 808.15 1812.06 903.515C1782.04 1010.03 1762.21 1118.19 1761.45 1228.93C1760.95 1301.68 1758.97 1374.9 1763.22 1447.57C1764.72 1473.38 1767.3 1499.23 1771.39 1524.77C1771.72 1526.86 1780.88 1583.87 1789.63 1570.59C1794.61 1563.03 1780.25 1511.45 1779.17 1502.86C1773.06 1454.47 1771.64 1405.72 1771.94 1356.98C1772.43 1276.73 1770.06 1196.88 1778.2 1116.93C1779.41 1104.99 1780.37 1092.45 1783.21 1080.77C1786.22 1068.36 1782.38 1073.78 1792.19 1068.86C1801.72 1064.08 1813.49 1064.77 1823.38 1058.77C1862.6 1034.99 1882.66 973.906 1898.27 933.826C1916.13 887.993 1926.99 839.118 1935.66 790.885C1942.02 755.447 1946.57 720.225 1949.15 684.33C1949.96 673.018 1950.01 661.188 1952.23 650.064C1952.83 647.064 1955.84 641.756 1955.73 639.099C1955.5 633.475 1952.1 630.168 1951.82 625.442C1948.88 628.089 1945.99 630.801 1943.17 633.572Z" fill="#89C5CC"/>
<path id="Base" fill-rule="evenodd" clip-rule="evenodd" d="M1560 1608C1560 1728.95 1658.05 1827 1779 1827C1899.95 1827 1998 1728.95 1998 1608" fill="#89C5CC"/>
<path id="Leaf Me Alone!_4" fill-rule="evenodd" clip-rule="evenodd" d="M1929.08 1416.25C1983.28 1412.26 2043.81 1455.99 2069.96 1501.49C2091.03 1538.18 2087.48 1586.36 2074.47 1625.33C2065.75 1651.43 2046.72 1688.63 2014.99 1689C1975.3 1689.45 1973.38 1640.39 1972.62 1611.71C1971.6 1573.58 1966.78 1540.36 1936.73 1514.37C1933.02 1511.16 1929.13 1508.16 1925.24 1505.15C1921.78 1502.49 1918.33 1499.82 1915 1497.01C1914.47 1496.57 1913.94 1496.12 1913.4 1495.67C1902.78 1486.74 1891.62 1477.36 1890.26 1462.64C1888.29 1441.31 1900.33 1437.47 1918.71 1441.43C1919.31 1441.56 1920.92 1442.17 1923.11 1443C1932.5 1446.56 1952.53 1454.15 1948.74 1445.08C1947.32 1441.65 1942.1 1438.94 1935.52 1436.91C1918.5 1435.06 1898.2 1432.92 1892.36 1434.2C1829.38 1448.02 1804.85 1535.27 1798.34 1590.7C1797.64 1596.68 1797.07 1602.68 1796.57 1608.7H1785C1785.8 1594.18 1786.86 1579.69 1789.29 1565.33C1798.57 1510.42 1827.6 1429.77 1891.26 1420.86C1893.61 1420.53 1902.25 1420.47 1912.71 1421.09C1917.67 1418.32 1923.23 1416.64 1929.08 1416.25Z" fill="#69A1AC"/>
</g>
<g id="Plant Left" opacity="0.5">
<path id="Leaf" fill-rule="evenodd" clip-rule="evenodd" d="M600.669 571.334C613.276 553.358 636.671 507.704 654.415 501.281C665.844 497.144 662.512 539.94 662.653 548.101C663.202 579.672 660.129 611.043 656.333 642.349C649.495 698.81 627.135 749.092 596.466 797.146C580.685 821.872 562.174 846.899 536.536 862.327C524.735 869.432 510.536 870.622 498.881 876.743C485.308 883.869 492.7 878.109 486.583 892.252C478.088 911.889 475.371 937.223 471.441 958.176C453.395 1054.36 409.705 1562.83 417.279 1660.67C417.952 1669.35 405.86 1671.42 405.256 1660.83C402.047 1604.7 429.811 1215.97 443.819 1088.84C457.826 961.713 472.001 849.403 486.214 805.422C503.457 752.062 534.598 687.894 560.52 638.134C572.561 615.017 585.686 592.696 600.669 571.334Z" fill="#69A1AC"/>
<path id="Leaf_2" fill-rule="evenodd" clip-rule="evenodd" d="M694.242 1194.83C727.048 1170.75 762.557 1216.2 732.871 1240.29C716.461 1253.61 699.304 1248.87 689.646 1237.77C683.376 1245.42 677.507 1253.41 671.868 1260.16C654.688 1280.73 638.45 1301.78 622.932 1323.33C590.694 1368.1 563.067 1415.4 534.181 1461.84C505.674 1507.66 477.395 1553.72 451.557 1600.71C429.669 1640.52 400.494 1687.36 393 1731C404.37 1638.44 447.516 1549.47 498.894 1467.87C549.854 1386.94 608.337 1298.56 687.243 1234.69C679.212 1222.88 678.989 1206.02 694.242 1194.83Z" fill="#C1DEE2"/>
<path id="Leaf_3" fill-rule="evenodd" clip-rule="evenodd" d="M71.7396 969.092C90.0973 972.682 120.094 1014.21 135.226 1030.03C153.21 1048.84 169.525 1068.88 184.905 1089.88C218.013 1135.07 247.623 1183.13 272.802 1233.24C313.849 1314.93 346.734 1398.79 370.599 1487.75C385.208 1542.21 394.667 1598.65 400.273 1654.7C401.332 1665.27 412.414 1746.76 396.445 1748.96C382.083 1750.93 386.519 1687.08 385.826 1678.39C377.994 1580.39 354.532 1485.04 321.896 1392.68C314.787 1372.56 308.183 1347.91 296.814 1329.81C288.628 1316.76 296.756 1321.31 282.368 1316.38C270.015 1312.13 255.939 1313.17 243.289 1307.98C215.807 1296.71 193.802 1274.83 174.513 1252.82C137.027 1210.05 107.322 1163.78 91.8379 1108.98C83.2484 1078.59 75.3551 1048.03 70.9748 1016.71C69.8417 1008.61 59.9155 966.78 71.7396 969.092Z" fill="#69A1AC"/>
<path id="Leaf_4" fill-rule="evenodd" clip-rule="evenodd" d="M144.184 278.148C213.334 398.071 270.158 529.804 306.85 663.229C329.081 744.069 344.628 827.024 360.075 909.379C383.992 1036.9 406.614 1164.4 413.049 1294.19C419.523 1424.72 432.325 1575.28 389.582 1701C410.933 1573.35 390.606 1437.49 387.007 1309.05C385.287 1247.74 380.303 1187.02 373.765 1126.07C367.42 1066.94 357.055 1008.09 347.403 949.421C342.701 920.85 337.763 892.322 332.735 863.81C331.234 855.303 330.6 830.06 325.204 824.249C319.773 818.399 292.063 816.015 283.363 811.723C265.845 803.078 249.366 790.799 234.783 777.824C206.825 752.952 182.504 720.453 163.308 688.417C118.892 614.291 101.135 523.83 102.032 437.982C102.205 421.315 129.01 241.83 118.245 239.358C118.893 238.599 119.506 237.815 120.084 237C128.235 250.646 136.232 264.385 144.184 278.148Z" fill="#89C5CC"/>
<path id="Leaf_5" fill-rule="evenodd" clip-rule="evenodd" d="M890.538 710.662C891.605 709.123 898.55 698.42 895.053 699.104C902.173 697.711 885.26 710.908 903 702.811C894.577 710.766 899.438 721.099 899.551 731.806C899.734 749.189 896.826 766.429 893.552 783.439C888.378 810.327 880.672 836.469 869.485 861.478C845.104 915.977 803.704 968.442 754.555 1002.52C730.291 1019.34 706.512 1025.07 678.839 1032.81C661.36 1037.7 659.973 1046.74 650.695 1063.71C631.379 1099.03 612.407 1134.23 595.372 1170.75C575.031 1214.36 555.284 1258.02 536.658 1302.39C473.908 1451.87 422.836 1606.73 396.014 1767C395.358 1672.56 417.206 1575.29 444.765 1485.26C464.841 1419.68 490.975 1356.45 518.85 1293.87C525.604 1278.71 535.84 1259.2 538.709 1242.46C540.717 1230.74 534.577 1219.46 531.765 1207.1C520.804 1158.99 521.589 1105.09 531.214 1056.72C541.827 1003.38 572.518 978.627 624.435 971.072C643.423 968.308 667.556 969.321 684.967 961.225C703.935 952.409 711.76 923.431 722.546 904.829C751.517 854.86 785.939 806.937 825.465 764.835C836.409 753.176 848.179 742.42 860.665 732.45C868.539 726.16 885.173 718.411 890.538 710.662Z" fill="#89C5CC"/>
<path id="Base_2" fill-rule="evenodd" clip-rule="evenodd" d="M293.535 1682.19C292.199 1673.13 299.219 1665 308.374 1665H492.626C501.781 1665 508.801 1673.13 507.465 1682.19L493.224 1778.75C488.883 1808.19 463.622 1830 433.866 1830H367.134C337.378 1830 312.117 1808.19 307.776 1778.75L293.535 1682.19Z" fill="#C1DEE2"/>
</g>
<g id="Maceta">
<path id="Base_3" fill-rule="evenodd" clip-rule="evenodd" d="M142.253 1714.37C142.253 1778.23 147.293 1830 214.937 1830C282.581 1830 287.62 1778.23 287.62 1714.37" fill="#F2F2F2"/>
<path id="Fill 27" fill-rule="evenodd" clip-rule="evenodd" d="M235.06 1674.52C232.581 1678.81 230.37 1683.18 228.417 1687.62C228.348 1678.48 228.854 1669.27 230.234 1659.94C232.593 1643.95 236.197 1628.04 239.583 1612.17C242.016 1600.75 241.863 1580.26 251.098 1571.16C253.631 1569.2 254.241 1573.05 254.241 1574.73C254.272 1575.08 254.233 1567.9 251.775 1569.15C237.163 1576.69 232.429 1600.42 227.751 1612.3C220.926 1629.64 215.118 1647.37 212.727 1665.41C212.123 1669.97 211.794 1674.53 211.718 1679.08C211.221 1677.86 210.755 1676.63 210.239 1675.42C201.805 1655.64 190.424 1636.34 176.229 1618.54C172.735 1614.16 128.802 1570.95 125.363 1577.56C125.703 1578.52 126.413 1579.32 127.496 1579.95C127.56 1580.03 127.562 1579.99 127.525 1579.88C130.105 1584.05 137.441 1590.48 139.726 1594.14C145.477 1603.33 149.946 1613.08 154.488 1622.65C164.084 1642.86 172.986 1663.29 181.616 1683.75C183.625 1688.52 185.72 1693.26 187.856 1697.98C165.831 1666.21 136.448 1637.37 96 1620.86C109.815 1627.89 118.872 1641.11 128.202 1651.24C139.454 1663.45 151.305 1675.33 162.579 1687.53C175.876 1701.92 191.522 1717.07 204.311 1733C216.7 1759.01 228.739 1785.04 236.17 1812.39C233.125 1802.94 235.932 1789.88 235.41 1779.97C234.997 1772.08 234.074 1764.25 232.811 1756.44C234.373 1759.96 235.719 1763.49 236.329 1766.77C235.772 1761.27 235.131 1755.8 234.442 1750.37C236.211 1745.27 237.948 1740.52 239.121 1736.61C245.136 1716.54 252.297 1696.81 262.048 1677.58C271.072 1659.79 281.423 1642.23 292.702 1625.2C297.963 1617.27 303.297 1609.36 308.597 1601.44C312.066 1596.25 315.369 1587.95 320.199 1582.98C288.978 1611.52 254.868 1640.27 235.06 1674.52Z" fill="#F2F2F2"/>
</g>
<g id="Top Leaves">
<path id="Leaf_6" fill-rule="evenodd" clip-rule="evenodd" d="M2128.9 371.482C2119.95 341.628 2098.94 318.262 2077.12 296.853C2034.66 255.175 2011.82 229.405 1996.68 168.437C1987.79 132.58 1978.73 94.583 1950.5 68.5685C1929.94 49.6242 1894.56 33.7076 1867.07 47.2732C1824.78 72.5152 1813.43 124.316 1817.69 170.7C1822.98 228.191 1849.83 263.639 1901.42 284.814C1930.49 296.74 1949.81 312.476 1965.59 339.896C1978.22 361.821 1985.57 389.277 2001.44 409.153C2025.15 438.866 2054.82 452.074 2091.4 447.139C2057.14 384.104 2017.11 320.478 1968.83 267.406C1964.31 262.07 1937.66 241.648 1943.03 232.554C1948.96 222.542 1976.32 260.153 1976.13 259.925C1990.16 276.031 2003.14 293.146 2015.89 310.425C2015.86 310.441 2015.82 310.451 2015.78 310.468C2028.91 328.199 2041.93 346.19 2054.71 364.408C2059.87 372.113 2064.9 379.918 2069.71 387.918C2076.78 399.657 2087.99 432.974 2099.55 440.192C2102.02 441.736 2104.31 442.598 2106.44 442.954C2114.33 455.867 2122 468.884 2129.3 482.054C2148.36 516.452 2164.72 552.772 2172.23 591.607C2174.42 602.942 2172.87 645.342 2180.61 653.525C2194.75 668.492 2190.61 639.67 2189.76 630.97C2182.74 558.93 2156.87 497.555 2119.32 436.991C2130.86 421.925 2132.52 383.578 2128.9 371.482Z" fill="#F2F2F2"/>
<path id="Leaf_7" fill-rule="evenodd" clip-rule="evenodd" d="M1644.39 406.29C1659.31 388.718 1695.16 385.737 1717.08 386.913C1744.21 388.368 1772.08 394.973 1797.89 402.959C1840.41 416.113 1881.73 440.118 1919.18 463.352C1923.69 466.152 1979.29 499.588 1974.37 505.456C1969.5 511.269 1914.91 471.552 1902.75 464.707C1876.79 450.095 1852.99 432.815 1824.37 423.166C1794.75 413.173 1763.41 409.216 1732.26 409.489C1728.26 409.525 1715.22 406.737 1714.94 412.652C1714.66 418.438 1736.24 415.419 1740.05 415.454C1755.77 415.598 1771.58 417.078 1787.07 419.801C1816.1 424.904 1843.4 435.184 1868.26 450.951C1861.32 467.081 1844.69 474.519 1827.24 470.482C1812.17 466.992 1797.47 458.386 1782.7 455.898C1772.53 454.185 1762.35 455.204 1752.49 458.069C1726.48 465.628 1711.48 481.113 1682.88 470.341C1660.47 461.897 1622.97 431.56 1644.39 406.29Z" fill="#F2F2F2"/>
<path id="Leaf Me Alone!_5" fill-rule="evenodd" clip-rule="evenodd" d="M1580.26 123.154C1547.14 120.739 1510.16 147.167 1494.19 174.67C1481.31 196.844 1483.48 225.962 1491.44 249.52C1496.76 265.292 1508.39 287.779 1527.77 287.998C1552.02 288.272 1553.19 258.62 1553.66 241.285C1554.28 218.238 1557.23 198.162 1575.58 182.453C1577.85 180.514 1580.23 178.699 1582.61 176.884C1584.72 175.273 1586.83 173.662 1588.86 171.965C1589.19 171.694 1589.51 171.422 1589.84 171.15C1596.33 165.753 1603.15 160.084 1603.98 151.188C1605.18 138.296 1597.82 135.976 1586.59 138.371C1586.23 138.448 1585.25 138.817 1583.91 139.319C1578.17 141.47 1565.93 146.06 1568.25 140.573C1569.12 138.506 1572.3 136.868 1576.32 135.64C1586.72 134.521 1599.12 133.223 1602.69 133.999C1641.17 142.351 1656.16 195.083 1660.14 228.587C1660.59 232.381 1660.95 236.187 1661.26 240H1668.31C1667.82 231.046 1667.18 222.107 1665.66 213.253C1659.99 180.067 1642.26 131.325 1603.36 125.938C1601.93 125.737 1596.65 125.704 1590.26 126.075C1587.23 124.4 1583.83 123.387 1580.26 123.154Z" fill="#F2F2F2"/>
</g>
</g>
</svg>
